<svg xmlns="http://www.w3.org/2000/svg" width="24" height="24" viewBox="0 0 24 24">
  <g id="Group_80" data-name="Group 80" transform="translate(-1506 -46)">
    <g id="Component_11_2" data-name="Component 11 – 2" transform="translate(1506 46)">
      <rect id="Rectangle_74" data-name="Rectangle 74" width="24" height="24" fill="rgba(255,255,255,0)"/>
      <path id="Message" d="M16.525,3H7.456A5.533,5.533,0,0,0,2,8.859v6.282A5.533,5.533,0,0,0,7.456,21h9.061a5.522,5.522,0,0,0,4-1.773A5.6,5.6,0,0,0,21.989,15.1V8.859A5.557,5.557,0,0,0,16.525,3ZM7.456,4.528h9.052A4,4,0,0,1,19.4,5.816a4.064,4.064,0,0,1,1.072,3v6.327A4.1,4.1,0,0,1,19.4,18.184a4,4,0,0,1-2.894,1.287H7.456a4.018,4.018,0,0,1-3.939-4.331V8.859A4.018,4.018,0,0,1,7.456,4.528Zm10.568,4.11a.755.755,0,0,0-1.066-.119l-4.1,3.3-.118.083a1.379,1.379,0,0,1-1.581-.089l-4.129-3.3-.093-.064a.755.755,0,0,0-.973.187.768.768,0,0,0,.123,1.074l4.134,3.3.161.118a2.889,2.889,0,0,0,3.416-.114l4.107-3.311.082-.077A.768.768,0,0,0,18.024,8.638Z" fill="#222" fill-rule="evenodd"/>
    </g>
    <g id="Ellipse_2" data-name="Ellipse 2" transform="translate(1520 46)" fill="#f28" stroke="#fff" stroke-width="1">
      <circle cx="5" cy="5" r="5" stroke="none"/>
      <circle cx="5" cy="5" r="4.5" fill="none"/>
    </g>
  </g>
</svg>
