<svg id="Layer_2" data-name="Layer 2" xmlns="http://www.w3.org/2000/svg" width="20" height="20" viewBox="0 0 20 20">
  <g id="Layer_1" data-name="Layer 1">
    <path id="Path_13" data-name="Path 13" d="M10,7.458A2.542,2.542,0,1,0,12.542,10,2.542,2.542,0,0,0,10,7.458Zm0,0A2.542,2.542,0,1,0,12.542,10,2.542,2.542,0,0,0,10,7.458ZM16.441,0H3.559A3.563,3.563,0,0,0,0,3.559V16.441A3.563,3.563,0,0,0,3.559,20H16.441A3.563,3.563,0,0,0,20,16.441V3.559A3.563,3.563,0,0,0,16.441,0ZM10,14.237A4.237,4.237,0,1,1,14.237,10,4.237,4.237,0,0,1,10,14.237ZM15.593,6.1a1.695,1.695,0,1,1,1.695-1.695A1.695,1.695,0,0,1,15.593,6.1ZM10,7.458A2.542,2.542,0,1,0,12.542,10,2.542,2.542,0,0,0,10,7.458Z" fill="#222"/>
  </g>
</svg>
